<?xml version='1.0' encoding='iso-8859-1'?>
<!-- Uploaded to: SVG Repo, www.svgrepo.com, Generator: SVG Repo Mixer Tools -->
<svg fill="#2596be" height="800px" width="800px" version="1.1" xmlns="http://www.w3.org/2000/svg" viewBox="0 0 470 470" xmlns:xlink="http://www.w3.org/1999/xlink" enable-background="new 0 0 470 470">
  <g>
    <path d="m382.5,120c24.813,0 45-20.187 45-45s-20.187-45-45-45-45,20.187-45,45 20.187,45 45,45zm0-75c16.542,0 30,13.458 30,30s-13.458,30-30,30c-13.953,0-25.712-9.575-29.051-22.5h36.551c4.142,0 7.5-3.358 7.5-7.5s-3.358-7.5-7.5-7.5h-36.551c3.339-12.925 15.098-22.5 29.051-22.5z"/>
    <path d="m133.359,295.001c10.548,23.551 34.21,39.999 61.641,39.999 37.22,0 67.5-30.28 67.5-67.5v-25c0-4.142-3.358-7.5-7.5-7.5h-149.126c-2.677,0-5.151,1.427-6.492,3.744-3.286,5.679-5.022,12.165-5.022,18.757 0,20.678 16.822,37.5 37.5,37.5h1.499zm9.141-45.001h105v17.5c0,28.949-23.551,52.5-52.5,52.5s-52.5-23.551-52.5-52.5v-17.5zm-33.14,7.501c0-2.568 0.438-5.106 1.282-7.501h16.858v17.5c0,4.189 0.383,8.289 1.117,12.269-10.875-1.577-19.257-10.962-19.257-22.268z"/>
    <path d="m142.5,455h-40c-4.142,0-7.5,3.358-7.5,7.5s3.358,7.5 7.5,7.5h40c4.142,0 7.5-3.358 7.5-7.5s-3.358-7.5-7.5-7.5z"/>
    <path d="m447.5,455h-40c-4.142,0-7.5,3.358-7.5,7.5s3.358,7.5 7.5,7.5h40c4.142,0 7.5-3.358 7.5-7.5s-3.358-7.5-7.5-7.5z"/>
    <path d="m462.5,0h-375c-4.142,0-7.5,3.358-7.5,7.5v75c0,20.678 16.822,37.5 37.5,37.5h22.5v30h-15v-7.5c0-3.944-3.055-7.214-6.99-7.482l-110-7.5c-2.072-0.145-4.112,0.583-5.63,2.002-1.518,1.418-2.38,3.402-2.38,5.48v45c0,2.078 0.862,4.063 2.38,5.48 1.394,1.302 3.225,2.02 5.119,2.02 0.17,0 0.34-0.006 0.511-0.018l110-7.5c3.935-0.268 6.99-3.538 6.99-7.482v-7.5h16.29c3.096,8.729 11.432,15 21.21,15h25v12.5c0,4.142 3.358,7.5 7.5,7.5s7.5-3.358 7.5-7.5v-12.5h25c12.407,0 22.5-10.093 22.5-22.5v-37.5h45v230h-177.5c-20.678,0-37.5,16.822-37.5,37.5v45c0,4.142 3.358,7.5 7.5,7.5h375c4.142,0 7.5-3.358 7.5-7.5v-425c0-4.142-3.358-7.5-7.5-7.5zm-352.5,165.494l-95,6.477v-28.942l95,6.477v15.988zm125-7.994c0,4.136-3.364,7.5-7.5,7.5h-65c-4.136,0-7.5-3.364-7.5-7.5v-37.5h80v37.5zm220,267.5h-360v-37.5c0-12.407 10.093-22.5 22.5-22.5h177.5v37.5c0,4.142 3.358,7.5 7.5,7.5s7.5-3.358 7.5-7.5v-290c0-4.142-3.358-7.5-7.5-7.5h-185c-12.407,0-22.5-10.093-22.5-22.5v-67.5h360v410z"/>
    <circle cx="352.5" cy="357.5" r="7.5"/>
    <circle cx="352.5" cy="312.5" r="7.5"/>
    <circle cx="352.5" cy="267.5" r="7.5"/>
  </g>
</svg>